<svg width="993" height="913" viewBox="0 0 993 913" fill="none" xmlns="http://www.w3.org/2000/svg">
<path d="M900.266 423.099C896.904 437.612 889.157 450.479 881.06 463.401C781.963 593.877 652.792 701.787 542.927 828.028C455.994 776.175 263.544 718.056 129.938 532.734L83.5 443.369L120.066 503.741L193.7 517.793L279.856 494.373H418.107L685.594 460.023L900.266 423.099Z" fill="url(#paint0_linear_7_236)"/>
<g clip-path="url(#paint1_diamond_7_236_clip_path)" data-figma-skip-parse="true"><g transform="matrix(0.154 0.2325 -0.293021 0.618249 577.501 709.511)"><rect x="0" y="0" width="1762.7" height="1003.26" fill="url(#paint1_diamond_7_236)" opacity="1" shape-rendering="crispEdges"/><rect x="0" y="0" width="1762.7" height="1003.26" transform="scale(1 -1)" fill="url(#paint1_diamond_7_236)" opacity="1" shape-rendering="crispEdges"/><rect x="0" y="0" width="1762.7" height="1003.26" transform="scale(-1 1)" fill="url(#paint1_diamond_7_236)" opacity="1" shape-rendering="crispEdges"/><rect x="0" y="0" width="1762.7" height="1003.26" transform="scale(-1)" fill="url(#paint1_diamond_7_236)" opacity="1" shape-rendering="crispEdges"/></g></g><path d="M955.025 273.118C968.194 271.296 981.376 271.506 992.5 274.511C981.399 281.329 972.071 290.04 964.45 299.26C959.003 305.699 954.519 312.276 950.221 319.173C939.609 336.321 933.454 356.368 924.497 372.957C916.354 388.051 909.659 404.255 902.835 420.523C902.86 416.876 902.602 413.206 902 409.511C901.534 429.878 891.592 446.593 881.06 463.402C785 589.879 660.681 695.154 553.081 816.474C554.282 814.291 555.466 812.109 556.63 809.933C609.506 710.575 641.146 605.319 692.768 505.781C710.257 471.96 730.78 439.147 753.3 406.447C779.652 368.362 820.624 338.492 861.18 309.391C880.528 295.583 904.684 286.634 927.438 279.521C936.69 276.606 945.724 274.505 955.025 273.118Z" data-figma-gradient-fill="{&#34;type&#34;:&#34;GRADIENT_DIAMOND&#34;,&#34;stops&#34;:[{&#34;color&#34;:{&#34;r&#34;:0.0060897432267665863,&#34;g&#34;:0.091346152126789093,&#34;b&#34;:0.0,&#34;a&#34;:1.0},&#34;position&#34;:0.0},{&#34;color&#34;:{&#34;r&#34;:0.27058824896812439,&#34;g&#34;:0.59215688705444336,&#34;b&#34;:0.20784313976764679,&#34;a&#34;:1.0},&#34;position&#34;:1.0}],&#34;stopsVar&#34;:[{&#34;color&#34;:{&#34;r&#34;:0.0060897432267665863,&#34;g&#34;:0.091346152126789093,&#34;b&#34;:0.0,&#34;a&#34;:1.0},&#34;position&#34;:0.0},{&#34;color&#34;:{&#34;r&#34;:0.27058824896812439,&#34;g&#34;:0.59215688705444336,&#34;b&#34;:0.20784313976764679,&#34;a&#34;:1.0},&#34;position&#34;:1.0}],&#34;transform&#34;:{&#34;m00&#34;:307.99929809570312,&#34;m01&#34;:-586.04290771484375,&#34;m02&#34;:716.5227050781250,&#34;m10&#34;:465.00012207031250,&#34;m11&#34;:1236.4979248046875,&#34;m12&#34;:-141.23783874511719},&#34;opacity&#34;:1.0,&#34;blendMode&#34;:&#34;NORMAL&#34;,&#34;visible&#34;:true}"/>
<g clip-path="url(#paint2_diamond_7_236_clip_path)" data-figma-skip-parse="true"><g transform="matrix(0.320513 0.0321685 0.0399373 -0.397918 548 789.511)"><rect x="0" y="0" width="799.104" height="1600.42" fill="url(#paint2_diamond_7_236)" opacity="1" shape-rendering="crispEdges"/><rect x="0" y="0" width="799.104" height="1600.42" transform="scale(1 -1)" fill="url(#paint2_diamond_7_236)" opacity="1" shape-rendering="crispEdges"/><rect x="0" y="0" width="799.104" height="1600.42" transform="scale(-1 1)" fill="url(#paint2_diamond_7_236)" opacity="1" shape-rendering="crispEdges"/><rect x="0" y="0" width="799.104" height="1600.42" transform="scale(-1)" fill="url(#paint2_diamond_7_236)" opacity="1" shape-rendering="crispEdges"/></g></g><path d="M804.566 172.011C804.154 185.966 804.29 200.452 804.05 214.487C803.86 224.126 803.474 233.59 802.523 242.693C800.145 265.305 799.302 288.558 792.255 308.03C781.844 336.8 772.501 365.786 758.852 392.11C703.144 501.04 616.223 595.228 579.415 716.216C571.079 744.658 566.271 773.895 564.945 803.23C562.667 805.748 560.397 808.272 558.133 810.803C553.747 779.475 553.628 746.953 554.817 714.046C560.067 585.533 582.671 444.917 642.394 328.729C656.883 300.785 676.495 275.987 695.563 251.247C708.487 234.467 727.787 221.721 745.756 208.306C752.997 202.905 760.818 197.891 768.881 193.012C780.64 185.939 792.959 179.079 804.566 172.011Z" data-figma-gradient-fill="{&#34;type&#34;:&#34;GRADIENT_DIAMOND&#34;,&#34;stops&#34;:[{&#34;color&#34;:{&#34;r&#34;:0.0060897432267665863,&#34;g&#34;:0.091346152126789093,&#34;b&#34;:0.0,&#34;a&#34;:1.0},&#34;position&#34;:0.0},{&#34;color&#34;:{&#34;r&#34;:0.27058824896812439,&#34;g&#34;:0.59215688705444336,&#34;b&#34;:0.20784313976764679,&#34;a&#34;:1.0},&#34;position&#34;:1.0}],&#34;stopsVar&#34;:[{&#34;color&#34;:{&#34;r&#34;:0.0060897432267665863,&#34;g&#34;:0.091346152126789093,&#34;b&#34;:0.0,&#34;a&#34;:1.0},&#34;position&#34;:0.0},{&#34;color&#34;:{&#34;r&#34;:0.27058824896812439,&#34;g&#34;:0.59215688705444336,&#34;b&#34;:0.20784313976764679,&#34;a&#34;:1.0},&#34;position&#34;:1.0}],&#34;transform&#34;:{&#34;m00&#34;:641.0261230468750,&#34;m01&#34;:79.87463378906250,&#34;m02&#34;:187.54960632324219,&#34;m10&#34;:64.337043762207031,&#34;m11&#34;:-795.83587646484375,&#34;m12&#34;:1155.2601318359375},&#34;opacity&#34;:1.0,&#34;blendMode&#34;:&#34;NORMAL&#34;,&#34;visible&#34;:true}"/>
<g clip-path="url(#paint3_diamond_7_236_clip_path)" data-figma-skip-parse="true"><g transform="matrix(-0.14644 0.152839 -0.263843 -0.252798 253.999 663.011)"><rect x="0" y="0" width="1111.91" height="1118.66" fill="url(#paint3_diamond_7_236)" opacity="1" shape-rendering="crispEdges"/><rect x="0" y="0" width="1111.91" height="1118.66" transform="scale(1 -1)" fill="url(#paint3_diamond_7_236)" opacity="1" shape-rendering="crispEdges"/><rect x="0" y="0" width="1111.91" height="1118.66" transform="scale(-1 1)" fill="url(#paint3_diamond_7_236)" opacity="1" shape-rendering="crispEdges"/><rect x="0" y="0" width="1111.91" height="1118.66" transform="scale(-1)" fill="url(#paint3_diamond_7_236)" opacity="1" shape-rendering="crispEdges"/></g></g><path d="M0 341.011C11.0743 338.339 22.8429 337.024 34.6055 337.305C42.5533 337.448 50.6411 338.389 58.3271 339.915C77.3697 343.633 99.6029 347.143 112.137 360.076C189.696 449.031 224.234 555.362 254.22 662.602C219.161 634.597 184.735 601.764 152.89 562.672C123.706 508.847 92.9525 458.26 55.502 416.435C45.6886 406.338 42.8166 388.403 33.9971 375.362C30.5295 370.173 26.6592 364.974 22.4424 360.092C16.1689 352.905 8.83791 346.251 0 341.011Z" data-figma-gradient-fill="{&#34;type&#34;:&#34;GRADIENT_DIAMOND&#34;,&#34;stops&#34;:[{&#34;color&#34;:{&#34;r&#34;:0.0060897432267665863,&#34;g&#34;:0.091346152126789093,&#34;b&#34;:0.0,&#34;a&#34;:1.0},&#34;position&#34;:0.0},{&#34;color&#34;:{&#34;r&#34;:0.27058824896812439,&#34;g&#34;:0.59215688705444336,&#34;b&#34;:0.20784313976764679,&#34;a&#34;:1.0},&#34;position&#34;:1.0}],&#34;stopsVar&#34;:[{&#34;color&#34;:{&#34;r&#34;:0.0060897432267665863,&#34;g&#34;:0.091346152126789093,&#34;b&#34;:0.0,&#34;a&#34;:1.0},&#34;position&#34;:0.0},{&#34;color&#34;:{&#34;r&#34;:0.27058824896812439,&#34;g&#34;:0.59215688705444336,&#34;b&#34;:0.20784313976764679,&#34;a&#34;:1.0},&#34;position&#34;:1.0}],&#34;transform&#34;:{&#34;m00&#34;:-292.87994384765625,&#34;m01&#34;:-527.68652343750,&#34;m02&#34;:664.28228759765625,&#34;m10&#34;:305.67877197265625,&#34;m11&#34;:-505.59600830078125,&#34;m12&#34;:762.96942138671875},&#34;opacity&#34;:1.0,&#34;blendMode&#34;:&#34;NORMAL&#34;,&#34;visible&#34;:true}"/>
<g clip-path="url(#paint4_diamond_7_236_clip_path)" data-figma-skip-parse="true"><g transform="matrix(-0.368283 0.016963 -0.0249944 -0.542655 360 734.011)"><rect x="0" y="0" width="406.422" height="1114.56" fill="url(#paint4_diamond_7_236)" opacity="1" shape-rendering="crispEdges"/><rect x="0" y="0" width="406.422" height="1114.56" transform="scale(1 -1)" fill="url(#paint4_diamond_7_236)" opacity="1" shape-rendering="crispEdges"/><rect x="0" y="0" width="406.422" height="1114.56" transform="scale(-1 1)" fill="url(#paint4_diamond_7_236)" opacity="1" shape-rendering="crispEdges"/><rect x="0" y="0" width="406.422" height="1114.56" transform="scale(-1)" fill="url(#paint4_diamond_7_236)" opacity="1" shape-rendering="crispEdges"/></g></g><path d="M230.642 134.816C241.278 142.427 252.882 149.353 263.45 157.008C270.738 162.434 277.492 168.078 283.017 174.211C296.793 189.668 312.614 204.759 317.477 224.493C361.419 377.484 312.07 552.361 345.092 691.882C349.158 706.028 353.931 720.099 359.738 733.793C343.9 724.687 327.78 714.861 311.57 704.175C249.939 559.719 252.265 402.086 211.687 266.348C207.232 248.272 212.711 226.042 215.087 204.427C216.083 195.835 218.085 186.606 220.381 177.011C223.834 163.256 228.016 148.967 230.642 134.816Z" data-figma-gradient-fill="{&#34;type&#34;:&#34;GRADIENT_DIAMOND&#34;,&#34;stops&#34;:[{&#34;color&#34;:{&#34;r&#34;:0.0060897432267665863,&#34;g&#34;:0.091346152126789093,&#34;b&#34;:0.0,&#34;a&#34;:1.0},&#34;position&#34;:0.0},{&#34;color&#34;:{&#34;r&#34;:0.27058824896812439,&#34;g&#34;:0.59215688705444336,&#34;b&#34;:0.20784313976764679,&#34;a&#34;:1.0},&#34;position&#34;:1.0}],&#34;stopsVar&#34;:[{&#34;color&#34;:{&#34;r&#34;:0.0060897432267665863,&#34;g&#34;:0.091346152126789093,&#34;b&#34;:0.0,&#34;a&#34;:1.0},&#34;position&#34;:0.0},{&#34;color&#34;:{&#34;r&#34;:0.27058824896812439,&#34;g&#34;:0.59215688705444336,&#34;b&#34;:0.20784313976764679,&#34;a&#34;:1.0},&#34;position&#34;:1.0}],&#34;transform&#34;:{&#34;m00&#34;:-736.56628417968750,&#34;m01&#34;:-49.988861083984375,&#34;m02&#34;:753.2775878906250,&#34;m10&#34;:33.925914764404297,&#34;m11&#34;:-1085.3094482421875,&#34;m12&#34;:1259.702636718750},&#34;opacity&#34;:1.0,&#34;blendMode&#34;:&#34;NORMAL&#34;,&#34;visible&#34;:true}"/>
<g clip-path="url(#paint5_diamond_7_236_clip_path)" data-figma-skip-parse="true"><g transform="matrix(-0.2495 -0.2615 0.289652 -0.27636 281 687.011)"><rect x="0" y="0" width="1272.71" height="848.513" fill="url(#paint5_diamond_7_236)" opacity="1" shape-rendering="crispEdges"/><rect x="0" y="0" width="1272.71" height="848.513" transform="scale(1 -1)" fill="url(#paint5_diamond_7_236)" opacity="1" shape-rendering="crispEdges"/><rect x="0" y="0" width="1272.71" height="848.513" transform="scale(-1 1)" fill="url(#paint5_diamond_7_236)" opacity="1" shape-rendering="crispEdges"/><rect x="0" y="0" width="1272.71" height="848.513" transform="scale(-1)" fill="url(#paint5_diamond_7_236)" opacity="1" shape-rendering="crispEdges"/></g></g><path d="M82.5791 240.544C93.6414 243.145 105.294 245.03 116.157 247.59C123.634 249.394 131.083 251.906 137.486 254.929C153.17 262.183 171.02 269.513 181.069 283.255C267.367 385.027 249.164 545.428 282.314 654.538C291.71 676.458 306.31 696.232 324.528 712.551C303.935 699.496 283.112 685.106 262.456 669.085C262.287 668.842 262.118 668.599 261.95 668.354C201.423 549.155 183.389 430.294 107.89 342.816C99.0244 330.693 96.5007 312.545 92.043 296.323C90.1954 289.719 88.7418 282.145 87.707 274.57C86.2727 263.572 85.0343 251.767 82.5791 240.544Z" data-figma-gradient-fill="{&#34;type&#34;:&#34;GRADIENT_DIAMOND&#34;,&#34;stops&#34;:[{&#34;color&#34;:{&#34;r&#34;:0.0060897432267665863,&#34;g&#34;:0.091346152126789093,&#34;b&#34;:0.0,&#34;a&#34;:1.0},&#34;position&#34;:0.0},{&#34;color&#34;:{&#34;r&#34;:0.27103361487388611,&#34;g&#34;:0.59134614467620850,&#34;b&#34;:0.20697112381458282,&#34;a&#34;:1.0},&#34;position&#34;:1.0}],&#34;stopsVar&#34;:[{&#34;color&#34;:{&#34;r&#34;:0.0060897432267665863,&#34;g&#34;:0.091346152126789093,&#34;b&#34;:0.0,&#34;a&#34;:1.0},&#34;position&#34;:0.0},{&#34;color&#34;:{&#34;r&#34;:0.27103361487388611,&#34;g&#34;:0.59134614467620850,&#34;b&#34;:0.20697112381458282,&#34;a&#34;:1.0},&#34;position&#34;:1.0}],&#34;transform&#34;:{&#34;m00&#34;:-498.99996948242188,&#34;m01&#34;:579.30334472656250,&#34;m02&#34;:240.84828186035156,&#34;m10&#34;:-523.0,&#34;m11&#34;:-552.71954345703125,&#34;m12&#34;:1224.8704833984375},&#34;opacity&#34;:1.0,&#34;blendMode&#34;:&#34;NORMAL&#34;,&#34;visible&#34;:true}"/>
<g clip-path="url(#paint6_diamond_7_236_clip_path)" data-figma-skip-parse="true"><g transform="matrix(0.343862 0.0895329 0.104617 -0.401796 465.5 800.511)"><rect x="0" y="0" width="561.833" height="1729.09" fill="url(#paint6_diamond_7_236)" opacity="1" shape-rendering="crispEdges"/><rect x="0" y="0" width="561.833" height="1729.09" transform="scale(1 -1)" fill="url(#paint6_diamond_7_236)" opacity="1" shape-rendering="crispEdges"/><rect x="0" y="0" width="561.833" height="1729.09" transform="scale(-1 1)" fill="url(#paint6_diamond_7_236)" opacity="1" shape-rendering="crispEdges"/><rect x="0" y="0" width="561.833" height="1729.09" transform="scale(-1)" fill="url(#paint6_diamond_7_236)" opacity="1" shape-rendering="crispEdges"/></g></g><path d="M613.854 111.631C621.312 124.656 630.771 137.417 638.829 150.255C644.344 158.998 649.229 167.657 652.394 176.382C660.264 197.895 672.08 219.248 668.126 240.827C637.058 408.288 582.866 579.927 533.428 751.7C527.62 771.662 520.463 791.626 512.661 811.56C503.188 806.741 493.022 801.774 482.277 796.577C482.315 782.113 482.543 767.669 483.314 753.206C491.799 584.828 474.906 417.398 506.9 244.557C510.969 222.355 531.194 199.754 547.837 177.551C554.561 168.534 563.044 159.596 572.245 150.646C585.717 137.501 600.67 124.604 613.854 111.631Z" data-figma-gradient-fill="{&#34;type&#34;:&#34;GRADIENT_DIAMOND&#34;,&#34;stops&#34;:[{&#34;color&#34;:{&#34;r&#34;:0.0060897432267665863,&#34;g&#34;:0.091346152126789093,&#34;b&#34;:0.0,&#34;a&#34;:1.0},&#34;position&#34;:0.0},{&#34;color&#34;:{&#34;r&#34;:0.27058824896812439,&#34;g&#34;:0.59215688705444336,&#34;b&#34;:0.20784313976764679,&#34;a&#34;:1.0},&#34;position&#34;:1.0}],&#34;stopsVar&#34;:[{&#34;color&#34;:{&#34;r&#34;:0.0060897432267665863,&#34;g&#34;:0.091346152126789093,&#34;b&#34;:0.0,&#34;a&#34;:1.0},&#34;position&#34;:0.0},{&#34;color&#34;:{&#34;r&#34;:0.27058824896812439,&#34;g&#34;:0.59215688705444336,&#34;b&#34;:0.20784313976764679,&#34;a&#34;:1.0},&#34;position&#34;:1.0}],&#34;transform&#34;:{&#34;m00&#34;:687.7246093750,&#34;m01&#34;:209.23483276367188,&#34;m02&#34;:17.020273208618164,&#34;m10&#34;:179.06573486328125,&#34;m11&#34;:-803.59289550781250,&#34;m12&#34;:1112.7742919921875},&#34;opacity&#34;:1.0,&#34;blendMode&#34;:&#34;NORMAL&#34;,&#34;visible&#34;:true}"/>
<g clip-path="url(#paint7_diamond_7_236_clip_path)" data-figma-skip-parse="true"><g transform="matrix(-0.258157 -0.0391428 0.137371 -0.906 442 906.011)"><rect x="0" y="0" width="712.244" height="992.531" fill="url(#paint7_diamond_7_236)" opacity="1" shape-rendering="crispEdges"/><rect x="0" y="0" width="712.244" height="992.531" transform="scale(1 -1)" fill="url(#paint7_diamond_7_236)" opacity="1" shape-rendering="crispEdges"/><rect x="0" y="0" width="712.244" height="992.531" transform="scale(-1 1)" fill="url(#paint7_diamond_7_236)" opacity="1" shape-rendering="crispEdges"/><rect x="0" y="0" width="712.244" height="992.531" transform="scale(-1)" fill="url(#paint7_diamond_7_236)" opacity="1" shape-rendering="crispEdges"/></g></g><path d="M440.228 0C452.439 9.20313 463.45 20.3979 473.24 33.3691C479.891 42.1225 485.999 51.7767 491.499 61.7441C505.216 86.6942 518.221 113.744 523.204 142.776C532.422 196.555 537.427 251.767 530.196 304.142C518.591 386.91 496.479 465.121 484.395 542.147C480.368 567.811 474.661 593.579 471.196 618.926C464.454 668.978 461.603 719.257 474.137 766.103C477.052 777.098 480.847 787.806 485.472 798.123C470.395 790.815 454.13 783.059 437.003 774.615C413.661 729.725 400.987 677.898 395.448 625.912C392.432 597.858 390.36 569.251 391.681 541.212C395.742 457.331 404.704 375.627 415.538 297.788C422.335 248.636 438.679 200.675 444.946 153.404C448.21 128.182 455.307 102.266 455.241 76.0146C455.242 65.604 454.472 55.0514 452.914 44.7275C450.577 29.4847 446.505 14.5622 440.228 0Z" data-figma-gradient-fill="{&#34;type&#34;:&#34;GRADIENT_DIAMOND&#34;,&#34;stops&#34;:[{&#34;color&#34;:{&#34;r&#34;:0.0060897432267665863,&#34;g&#34;:0.091346152126789093,&#34;b&#34;:0.0,&#34;a&#34;:1.0},&#34;position&#34;:0.0},{&#34;color&#34;:{&#34;r&#34;:0.27058824896812439,&#34;g&#34;:0.59215688705444336,&#34;b&#34;:0.20784313976764679,&#34;a&#34;:1.0},&#34;position&#34;:1.0}],&#34;stopsVar&#34;:[{&#34;color&#34;:{&#34;r&#34;:0.0060897432267665863,&#34;g&#34;:0.091346152126789093,&#34;b&#34;:0.0,&#34;a&#34;:1.0},&#34;position&#34;:0.0},{&#34;color&#34;:{&#34;r&#34;:0.27058824896812439,&#34;g&#34;:0.59215688705444336,&#34;b&#34;:0.20784313976764679,&#34;a&#34;:1.0},&#34;position&#34;:1.0}],&#34;transform&#34;:{&#34;m00&#34;:-516.31408691406250,&#34;m01&#34;:274.74282836914062,&#34;m02&#34;:562.78570556640625,&#34;m10&#34;:-78.285652160644531,&#34;m11&#34;:-1811.9998779296875,&#34;m12&#34;:1851.1535644531250},&#34;opacity&#34;:1.0,&#34;blendMode&#34;:&#34;NORMAL&#34;,&#34;visible&#34;:true}"/>
<g clip-path="url(#paint8_diamond_7_236_clip_path)" data-figma-skip-parse="true"><g transform="matrix(0.7755 0.134 0.0514467 -0.297738 250.5 725.511)"><rect x="0" y="0" width="410.531" height="2365.39" fill="url(#paint8_diamond_7_236)" opacity="1" shape-rendering="crispEdges"/><rect x="0" y="0" width="410.531" height="2365.39" transform="scale(1 -1)" fill="url(#paint8_diamond_7_236)" opacity="1" shape-rendering="crispEdges"/><rect x="0" y="0" width="410.531" height="2365.39" transform="scale(-1 1)" fill="url(#paint8_diamond_7_236)" opacity="1" shape-rendering="crispEdges"/><rect x="0" y="0" width="410.531" height="2365.39" transform="scale(-1)" fill="url(#paint8_diamond_7_236)" opacity="1" shape-rendering="crispEdges"/></g></g><path d="M544.545 911.984C545.05 912.155 545.556 912.323 546.064 912.486C545.485 912.411 544.907 912.33 544.33 912.246C544.402 912.159 544.473 912.072 544.545 911.984Z" data-figma-gradient-fill="{&#34;type&#34;:&#34;GRADIENT_DIAMOND&#34;,&#34;stops&#34;:[{&#34;color&#34;:{&#34;r&#34;:0.0060897432267665863,&#34;g&#34;:0.091346152126789093,&#34;b&#34;:0.0,&#34;a&#34;:1.0},&#34;position&#34;:0.0},{&#34;color&#34;:{&#34;r&#34;:0.27058824896812439,&#34;g&#34;:0.59215688705444336,&#34;b&#34;:0.20784313976764679,&#34;a&#34;:1.0},&#34;position&#34;:1.0}],&#34;stopsVar&#34;:[{&#34;color&#34;:{&#34;r&#34;:0.0060897432267665863,&#34;g&#34;:0.091346152126789093,&#34;b&#34;:0.0,&#34;a&#34;:1.0},&#34;position&#34;:0.0},{&#34;color&#34;:{&#34;r&#34;:0.27058824896812439,&#34;g&#34;:0.59215688705444336,&#34;b&#34;:0.20784313976764679,&#34;a&#34;:1.0},&#34;position&#34;:1.0}],&#34;transform&#34;:{&#34;m00&#34;:1551.0,&#34;m01&#34;:102.89337921142578,&#34;m02&#34;:-576.44665527343750,&#34;m10&#34;:267.99990844726562,&#34;m11&#34;:-595.47650146484375,&#34;m12&#34;:889.24902343750},&#34;opacity&#34;:1.0,&#34;blendMode&#34;:&#34;NORMAL&#34;,&#34;visible&#34;:true}"/>
<g clip-path="url(#paint9_diamond_7_236_clip_path)" data-figma-skip-parse="true"><g transform="matrix(0.7755 0.134 0.0514467 -0.297738 250.5 725.511)"><rect x="0" y="0" width="410.531" height="2365.39" fill="url(#paint9_diamond_7_236)" opacity="1" shape-rendering="crispEdges"/><rect x="0" y="0" width="410.531" height="2365.39" transform="scale(1 -1)" fill="url(#paint9_diamond_7_236)" opacity="1" shape-rendering="crispEdges"/><rect x="0" y="0" width="410.531" height="2365.39" transform="scale(-1 1)" fill="url(#paint9_diamond_7_236)" opacity="1" shape-rendering="crispEdges"/><rect x="0" y="0" width="410.531" height="2365.39" transform="scale(-1)" fill="url(#paint9_diamond_7_236)" opacity="1" shape-rendering="crispEdges"/></g></g><path d="M407.051 51.2881C397.581 65.2556 397.734 81.9073 397.171 97.0928C396.778 108.441 397.362 118.073 397.413 129.19C397.769 141.774 396.957 155.17 397.096 168.105C397.152 181.602 398.602 194.026 397.947 207.321C395.69 255.992 398.408 304.95 398.367 353.856C398.422 430.894 394.341 509.374 400.939 585.965C406.847 650.652 416.246 714.874 436.336 774.285C420.816 766.628 404.592 758.405 387.906 749.439C368.033 702.815 353.864 653.144 342.32 602.839C324.982 525.546 310.303 446.294 310.239 364.411C310.288 312.459 317.353 259.687 326.07 207.249C328.459 192.867 333.22 179.482 337.603 164.988C341.894 151.108 346.168 136.556 352.31 123.3C357.523 111.546 363.093 101.681 370.046 90.3008C379.813 75.6036 391.462 58.3444 407.051 51.2881Z" data-figma-gradient-fill="{&#34;type&#34;:&#34;GRADIENT_DIAMOND&#34;,&#34;stops&#34;:[{&#34;color&#34;:{&#34;r&#34;:0.0060897432267665863,&#34;g&#34;:0.091346152126789093,&#34;b&#34;:0.0,&#34;a&#34;:1.0},&#34;position&#34;:0.0},{&#34;color&#34;:{&#34;r&#34;:0.27058824896812439,&#34;g&#34;:0.59215688705444336,&#34;b&#34;:0.20784313976764679,&#34;a&#34;:1.0},&#34;position&#34;:1.0}],&#34;stopsVar&#34;:[{&#34;color&#34;:{&#34;r&#34;:0.0060897432267665863,&#34;g&#34;:0.091346152126789093,&#34;b&#34;:0.0,&#34;a&#34;:1.0},&#34;position&#34;:0.0},{&#34;color&#34;:{&#34;r&#34;:0.27058824896812439,&#34;g&#34;:0.59215688705444336,&#34;b&#34;:0.20784313976764679,&#34;a&#34;:1.0},&#34;position&#34;:1.0}],&#34;transform&#34;:{&#34;m00&#34;:1551.0,&#34;m01&#34;:102.89337921142578,&#34;m02&#34;:-576.44665527343750,&#34;m10&#34;:267.99990844726562,&#34;m11&#34;:-595.47650146484375,&#34;m12&#34;:889.24902343750},&#34;opacity&#34;:1.0,&#34;blendMode&#34;:&#34;NORMAL&#34;,&#34;visible&#34;:true}"/>
<defs>
<clipPath id="paint1_diamond_7_236_clip_path"><path d="M955.025 273.118C968.194 271.296 981.376 271.506 992.5 274.511C981.399 281.329 972.071 290.04 964.45 299.26C959.003 305.699 954.519 312.276 950.221 319.173C939.609 336.321 933.454 356.368 924.497 372.957C916.354 388.051 909.659 404.255 902.835 420.523C902.86 416.876 902.602 413.206 902 409.511C901.534 429.878 891.592 446.593 881.06 463.402C785 589.879 660.681 695.154 553.081 816.474C554.282 814.291 555.466 812.109 556.63 809.933C609.506 710.575 641.146 605.319 692.768 505.781C710.257 471.96 730.78 439.147 753.3 406.447C779.652 368.362 820.624 338.492 861.18 309.391C880.528 295.583 904.684 286.634 927.438 279.521C936.69 276.606 945.724 274.505 955.025 273.118Z"/></clipPath><clipPath id="paint2_diamond_7_236_clip_path"><path d="M804.566 172.011C804.154 185.966 804.29 200.452 804.05 214.487C803.86 224.126 803.474 233.59 802.523 242.693C800.145 265.305 799.302 288.558 792.255 308.03C781.844 336.8 772.501 365.786 758.852 392.11C703.144 501.04 616.223 595.228 579.415 716.216C571.079 744.658 566.271 773.895 564.945 803.23C562.667 805.748 560.397 808.272 558.133 810.803C553.747 779.475 553.628 746.953 554.817 714.046C560.067 585.533 582.671 444.917 642.394 328.729C656.883 300.785 676.495 275.987 695.563 251.247C708.487 234.467 727.787 221.721 745.756 208.306C752.997 202.905 760.818 197.891 768.881 193.012C780.64 185.939 792.959 179.079 804.566 172.011Z"/></clipPath><clipPath id="paint3_diamond_7_236_clip_path"><path d="M0 341.011C11.0743 338.339 22.8429 337.024 34.6055 337.305C42.5533 337.448 50.6411 338.389 58.3271 339.915C77.3697 343.633 99.6029 347.143 112.137 360.076C189.696 449.031 224.234 555.362 254.22 662.602C219.161 634.597 184.735 601.764 152.89 562.672C123.706 508.847 92.9525 458.26 55.502 416.435C45.6886 406.338 42.8166 388.403 33.9971 375.362C30.5295 370.173 26.6592 364.974 22.4424 360.092C16.1689 352.905 8.83791 346.251 0 341.011Z"/></clipPath><clipPath id="paint4_diamond_7_236_clip_path"><path d="M230.642 134.816C241.278 142.427 252.882 149.353 263.45 157.008C270.738 162.434 277.492 168.078 283.017 174.211C296.793 189.668 312.614 204.759 317.477 224.493C361.419 377.484 312.07 552.361 345.092 691.882C349.158 706.028 353.931 720.099 359.738 733.793C343.9 724.687 327.78 714.861 311.57 704.175C249.939 559.719 252.265 402.086 211.687 266.348C207.232 248.272 212.711 226.042 215.087 204.427C216.083 195.835 218.085 186.606 220.381 177.011C223.834 163.256 228.016 148.967 230.642 134.816Z"/></clipPath><clipPath id="paint5_diamond_7_236_clip_path"><path d="M82.5791 240.544C93.6414 243.145 105.294 245.03 116.157 247.59C123.634 249.394 131.083 251.906 137.486 254.929C153.17 262.183 171.02 269.513 181.069 283.255C267.367 385.027 249.164 545.428 282.314 654.538C291.71 676.458 306.31 696.232 324.528 712.551C303.935 699.496 283.112 685.106 262.456 669.085C262.287 668.842 262.118 668.599 261.95 668.354C201.423 549.155 183.389 430.294 107.89 342.816C99.0244 330.693 96.5007 312.545 92.043 296.323C90.1954 289.719 88.7418 282.145 87.707 274.57C86.2727 263.572 85.0343 251.767 82.5791 240.544Z"/></clipPath><clipPath id="paint6_diamond_7_236_clip_path"><path d="M613.854 111.631C621.312 124.656 630.771 137.417 638.829 150.255C644.344 158.998 649.229 167.657 652.394 176.382C660.264 197.895 672.08 219.248 668.126 240.827C637.058 408.288 582.866 579.927 533.428 751.7C527.62 771.662 520.463 791.626 512.661 811.56C503.188 806.741 493.022 801.774 482.277 796.577C482.315 782.113 482.543 767.669 483.314 753.206C491.799 584.828 474.906 417.398 506.9 244.557C510.969 222.355 531.194 199.754 547.837 177.551C554.561 168.534 563.044 159.596 572.245 150.646C585.717 137.501 600.67 124.604 613.854 111.631Z"/></clipPath><clipPath id="paint7_diamond_7_236_clip_path"><path d="M440.228 0C452.439 9.20313 463.45 20.3979 473.24 33.3691C479.891 42.1225 485.999 51.7767 491.499 61.7441C505.216 86.6942 518.221 113.744 523.204 142.776C532.422 196.555 537.427 251.767 530.196 304.142C518.591 386.91 496.479 465.121 484.395 542.147C480.368 567.811 474.661 593.579 471.196 618.926C464.454 668.978 461.603 719.257 474.137 766.103C477.052 777.098 480.847 787.806 485.472 798.123C470.395 790.815 454.13 783.059 437.003 774.615C413.661 729.725 400.987 677.898 395.448 625.912C392.432 597.858 390.36 569.251 391.681 541.212C395.742 457.331 404.704 375.627 415.538 297.788C422.335 248.636 438.679 200.675 444.946 153.404C448.21 128.182 455.307 102.266 455.241 76.0146C455.242 65.604 454.472 55.0514 452.914 44.7275C450.577 29.4847 446.505 14.5622 440.228 0Z"/></clipPath><clipPath id="paint8_diamond_7_236_clip_path"><path d="M544.545 911.984C545.05 912.155 545.556 912.323 546.064 912.486C545.485 912.411 544.907 912.33 544.33 912.246C544.402 912.159 544.473 912.072 544.545 911.984Z"/></clipPath><clipPath id="paint9_diamond_7_236_clip_path"><path d="M407.051 51.2881C397.581 65.2556 397.734 81.9073 397.171 97.0928C396.778 108.441 397.362 118.073 397.413 129.19C397.769 141.774 396.957 155.17 397.096 168.105C397.152 181.602 398.602 194.026 397.947 207.321C395.69 255.992 398.408 304.95 398.367 353.856C398.422 430.894 394.341 509.374 400.939 585.965C406.847 650.652 416.246 714.874 436.336 774.285C420.816 766.628 404.592 758.405 387.906 749.439C368.033 702.815 353.864 653.144 342.32 602.839C324.982 525.546 310.303 446.294 310.239 364.411C310.288 312.459 317.353 259.687 326.07 207.249C328.459 192.867 333.22 179.482 337.603 164.988C341.894 151.108 346.168 136.556 352.31 123.3C357.523 111.546 363.093 101.681 370.046 90.3008C379.813 75.6036 391.462 58.3444 407.051 51.2881Z"/></clipPath><linearGradient id="paint0_linear_7_236" x1="520.5" y1="798.1" x2="461.818" y2="109.809" gradientUnits="userSpaceOnUse">
<stop stop-color="#021601"/>
<stop offset="1" stop-color="#055902"/>
</linearGradient>
<linearGradient id="paint1_diamond_7_236" x1="0" y1="0" x2="500" y2="500" gradientUnits="userSpaceOnUse">
<stop stop-color="#021700"/>
<stop offset="1" stop-color="#459735"/>
</linearGradient>
<linearGradient id="paint2_diamond_7_236" x1="0" y1="0" x2="500" y2="500" gradientUnits="userSpaceOnUse">
<stop stop-color="#021700"/>
<stop offset="1" stop-color="#459735"/>
</linearGradient>
<linearGradient id="paint3_diamond_7_236" x1="0" y1="0" x2="500" y2="500" gradientUnits="userSpaceOnUse">
<stop stop-color="#021700"/>
<stop offset="1" stop-color="#459735"/>
</linearGradient>
<linearGradient id="paint4_diamond_7_236" x1="0" y1="0" x2="500" y2="500" gradientUnits="userSpaceOnUse">
<stop stop-color="#021700"/>
<stop offset="1" stop-color="#459735"/>
</linearGradient>
<linearGradient id="paint5_diamond_7_236" x1="0" y1="0" x2="500" y2="500" gradientUnits="userSpaceOnUse">
<stop stop-color="#021700"/>
<stop offset="1" stop-color="#459735"/>
</linearGradient>
<linearGradient id="paint6_diamond_7_236" x1="0" y1="0" x2="500" y2="500" gradientUnits="userSpaceOnUse">
<stop stop-color="#021700"/>
<stop offset="1" stop-color="#459735"/>
</linearGradient>
<linearGradient id="paint7_diamond_7_236" x1="0" y1="0" x2="500" y2="500" gradientUnits="userSpaceOnUse">
<stop stop-color="#021700"/>
<stop offset="1" stop-color="#459735"/>
</linearGradient>
<linearGradient id="paint8_diamond_7_236" x1="0" y1="0" x2="500" y2="500" gradientUnits="userSpaceOnUse">
<stop stop-color="#021700"/>
<stop offset="1" stop-color="#459735"/>
</linearGradient>
<linearGradient id="paint9_diamond_7_236" x1="0" y1="0" x2="500" y2="500" gradientUnits="userSpaceOnUse">
<stop stop-color="#021700"/>
<stop offset="1" stop-color="#459735"/>
</linearGradient>
</defs>
</svg>
